<svg width="120" height="120" viewBox="0 0 120 120" fill="none" xmlns="http://www.w3.org/2000/svg">
  <rect width="120" height="120" rx="24" fill="#2D1B12"/>
  <path d="M36 40h40c10 0 18 8 18 18s-8 18-18 18H52c-8 0-16-6-16-14v-22z" fill="#D6A36A"/>
  <path d="M44 36h32c6 0 12 5 12 12 0 7-6 12-12 12h-6" stroke="#F2D2A9" stroke-width="6" stroke-linecap="round"/>
  <circle cx="44" cy="88" r="8" fill="#B57C4D"/>
  <circle cx="76" cy="88" r="8" fill="#B57C4D"/>
  <path d="M30 72c6 10 16 16 30 16s24-6 30-16" stroke="#F2D2A9" stroke-width="6" stroke-linecap="round"/>
</svg>
